<svg xmlns="http://www.w3.org/2000/svg" viewBox="0 0 256 256" role="img" aria-label="Vite Alt Logo">
  <defs>
    <linearGradient id="bg" x1="0%" y1="0%" x2="100%" y2="100%">
      <stop offset="0%" stop-color="#0f172a"/>
      <stop offset="100%" stop-color="#020617"/>
    </linearGradient>
    <radialGradient id="glow" cx="50%" cy="35%" r="60%">
      <stop offset="0%" stop-color="#4ade80" stop-opacity="0.9"/>
      <stop offset="40%" stop-color="#22d3ee" stop-opacity="0.45"/>
      <stop offset="100%" stop-color="transparent"/>
    </radialGradient>
    <linearGradient id="shield" x1="20%" y1="0%" x2="80%" y2="100%">
      <stop offset="0%" stop-color="#7c3aed"/>
      <stop offset="50%" stop-color="#6366f1"/>
      <stop offset="100%" stop-color="#14b8a6"/>
    </linearGradient>
    <linearGradient id="bolt" x1="0%" y1="0%" x2="100%" y2="100%">
      <stop offset="0%" stop-color="#facc15"/>
      <stop offset="50%" stop-color="#fb923c"/>
      <stop offset="100%" stop-color="#f43f5e"/>
    </linearGradient>
    <filter id="soft-glow" x="-50%" y="-50%" width="200%" height="200%">
      <feDropShadow dx="0" dy="0" stdDeviation="12" flood-color="#22d3ee" flood-opacity="0.45"/>
    </filter>
    <filter id="bolt-glow" x="-50%" y="-50%" width="200%" height="200%">
      <feDropShadow dx="0" dy="0" stdDeviation="6" flood-color="#facc15" flood-opacity="0.8"/>
    </filter>
  </defs>
  <rect width="256" height="256" rx="48" fill="url(#bg)"/>
  <circle cx="128" cy="110" r="100" fill="url(#glow)"/>
  <path
    d="M128 28L36 74l20 110 72 72 72-72 20-110z"
    fill="url(#shield)"
    filter="url(#soft-glow)"
    opacity="0.98"
  />
  <path
    d="M141 60l-32 64h32l-18 68 64-110h-34l16-22z"
    fill="url(#bolt)"
    filter="url(#bolt-glow)"
  />
  <path
    d="M60 96c28 22 108 22 136 0"
    stroke="#22d3ee"
    stroke-width="6"
    stroke-linecap="round"
    opacity="0.25"
  />
  <path
    d="M74 146c20 18 88 18 108 0"
    stroke="#f0abfc"
    stroke-width="4"
    stroke-linecap="round"
    opacity="0.35"
  />
  <circle cx="88" cy="86" r="6" fill="#38bdf8" opacity="0.9"/>
  <circle cx="168" cy="82" r="5" fill="#f472b6" opacity="0.8"/>
  <circle cx="122" cy="186" r="12" fill="#0ea5e9" opacity="0.55"/>
</svg>
